<?xml version="1.0" encoding="UTF-8"?>
<svg xmlns="http://www.w3.org/2000/svg" viewBox="0 0 502 502">
  <g id="ViewBox">
    <rect x="1" y="1" width="500" height="500" style="fill: none; stroke: #000; stroke-miterlimit: 10; stroke-width: 2px;"/>
  </g>
  <g id="Circuit">
    <path d="m195.14,307.45c-5.4,2-10.82,3.91-16.26,5.73-15.9,5.33-32.29,10.62-48.78,13.78-14.39,2.75-28.16-7.36-37.21-17.78,0,0-7.77-9.04-13.87-25-3.79-9.94-7.54-19.87-11.02-29.93-3.86-11.16-7.49-23.26-10.57-34.99-2.61-9.94-3.23-22.93-10.53-30.81-8.09-8.72-20.72-1.81-23.83,8.03-3.55,11.25,1.31,24.12,4.65,34.93,3,9.7,5.96,19.73,10.33,28.92,4.2,8.83,13.66,38.31,32.15,67.27,18.1,28.35,19.29,28.35,48.68,59.26,1.68,1.77,2.95,3.92,3.59,6.28.97,3.61,1.49,9.08-1.66,14.52-1.58,2.73-2.49,5.82-2.21,8.97.26,2.93,1.28,6.65,3.93,10.96,6.72,10.93,17.65,9.25,17.65,9.25,10.58-1.62,21.16-3.24,31.75-4.86,18.17-2.78,34.22-6.62,52.23-1.01,13.57,4.23,30.33,12.9,44.35,6.62,8.66-3.88,11.21-10.96,17.19-17.57,3.07-3.4,7-6.2,11.49-7.13,6.31-1.31,12.93,1.26,17.93,5.32,7.74,6.29,13.18,15.41,20.26,22.49,0,0,12.82,12.33,30.68,2.66,0,0,10.5-10.5,5.47-26.67-6.7-21.52-27.1-33.46-43.23-47.3-7.32-6.28-14.38-13.99-24.11-16.3-17.42-4.14-37.21,10.48-51.63,18.55-6.87,3.84-14.31,7.17-22.18,7.36-7.87.19-16.24-3.4-19.8-10.42-3.75-7.41-1.17-16.89,4.49-22.97,8.89-9.56,26.79-14.08,38.56-19.47,13.33-6.11,26.54-12.96,40.14-18.4,9.27-3.71,18.72-2.4,27.32,2.84l60.09,50.22s16.6,13.24,20.17,23.96c3.14,9.41,8.18,18.39,12.58,27.24,6.61,13.29,11.66,34.15,28.03,38.96,21.29,6.24,29.88-21.65,21.46-37.04-8.41-15.37-16.82-30.73-25.23-46.1-6.15-11.24-11.44-21.33-20.47-30.72-10.61-11.04-22.82-17.94-35.2-26.54-10.89-7.56-16.48-18.58-22.81-29.8-7.35-13.03-21.2-22.46-36.19-23.76-18.6-1.61-36.07,8.03-52.63,16.67-24.27,12.66-49.75,24.2-75.76,33.82Z" style="fill: none; stroke: #000; stroke-miterlimit: 10; stroke-width: 2px;"/>
  </g>
</svg>